<svg xmlns="http://www.w3.org/2000/svg">
  <defs>
    <symbol id= "icon-jersey" viewBox="-5.0 -10.0 110.0 135.0">
     <path d="m94.688 30.234h-38.656v-3.2344c2.6875-0.0625 4.8594-2.2656 4.8594-4.9844v-9.3281h3.0156v-3.0312h-1.5469l-1.7188-6.7656c-0.42188-1.7031-1.9375-2.8906-3.6875-2.8906h-13.891c-1.75 0-3.2812 1.1875-3.7031 2.875l-1.7188 6.7656h-1.5469v3.0312h3.0156v9.3438c0 2.7188 2.1719 4.9219 4.875 4.9844v3.2344h-38.672c-1.6875 0-3.0469 1.375-3.0469 3.0469v5.2344c0 1.6875 1.375 3.0469 3.0469 3.0469h13.047v1.8125c0 2.1094 1.7188 3.8281 3.8281 3.8281h5.3906l-2.5781 32.578c-0.078125 1.0625 0.28125 2.1094 1 2.8906s1.75 1.2188 2.7969 1.2188h15.516v13.047c0 1.6875 1.375 3.0469 3.0469 3.0469h5.2188c1.6875 0 3.0469-1.375 3.0469-3.0469v-13.031h15.516c1.0625 0 2.0781-0.45312 2.7969-1.2188 0.71875-0.78125 1.0938-1.8281 1-2.8906l-2.5469-32.578h5.3906c2.1094 0 3.8281-1.7188 3.8281-3.8281v-1.8125h13.047c1.6875 0 3.0469-1.375 3.0469-3.0469v-5.2344c0.046875-1.6875-1.3281-3.0625-3.0156-3.0625zm-52.391-26.609c0.09375-0.34375 0.40625-0.59375 0.76562-0.59375h13.891c0.35938 0 0.67188 0.25 0.76562 0.59375l1.5312 6.0312h-18.484zm-0.15625 18.406v-9.3438h15.734v9.3438c0 1.0781-0.875 1.9531-1.9531 1.9531h-11.812c-1.0938 0-1.9688-0.875-1.9688-1.9531zm4.875 4.9844h5.9844v3.2188h-5.9844zm9.0156 6.25h2.7656c-0.71875 4.2031-4.3906 7.4219-8.7969 7.4219s-8.0781-3.2188-8.7969-7.4219zm-50.75 5.25 0.015625-5.25h13.047v5.2656zm47.328 58.453h-5.2188c-0.015625 0-0.03125-0.015625-0.03125-0.015625v-13.047h5.2656zm26.016-53.578c0 0.4375-0.35938 0.79688-0.79688 0.79688h-8.6562l2.7969 35.844c0.03125 0.29688-0.125 0.5-0.20312 0.59375-0.09375 0.09375-0.28125 0.25-0.57812 0.25h-42.359c-0.29688 0-0.5-0.15625-0.57812-0.25-0.09375-0.09375-0.23438-0.29688-0.20312-0.59375l2.7969-35.844h-8.6562c-0.4375 0-0.79688-0.35938-0.79688-0.79688v-10.109h16.75c0.75 5.8906 5.7812 10.453 11.859 10.453s11.109-4.5625 11.859-10.453h16.75v10.109zm16.094-4.875c0 0.015625-0.015625 0.015625-0.015625 0.015625h-13.047v-5.2656l13.062 0.015625z"/>

    </symbol>
  </defs>
</svg>